# xmcd CD database file
#
# Track frame offsets:
#	150
#	30197
#	52400
#	68022
#	79600
#	112312
#	132840
#	172542
#
# Disc length: 2652 seconds
#
# Revision: 0
# Processed by: cddbd v1.5.1PL0 Copyright (c) Steve Scherf et al.
# Submitted via: CDex 1.51
#
DISCID=600a5a08
DTITLE=Spring Heel Jack - The Sweetness Of The Water
DYEAR=2004
DGENRE=Jazz
TTITLE0=Track Four
TTITLE1=Quintet
TTITLE2=Lata
TTITLE3=Duo
TTITLE4=Track One
TTITLE5=Inlet
TTITLE6=Track Two
TTITLE7=Autumn
EXTD=YEAR: 2004
EXTT0=
EXTT1=
EXTT2=
EXTT3=
EXTT4=
EXTT5=
EXTT6=
EXTT7=
PLAYORDER=
